<svg width="512" height="120" viewBox="0 0 512 120" fill="none" xmlns="http://www.w3.org/2000/svg">
<path d="M474.911 31.2603C496.242 31.2603 508.018 42.1818 509.724 58.3938H490.099C488.563 51.7384 483.614 47.3018 474.911 47.3018C468.767 47.3018 463.989 50.0323 463.989 54.6399C463.989 70.3394 511.09 58.5652 511.09 92.6956C511.089 108.907 497.096 120 477.983 120C456.31 120 443.511 107.713 442.487 89.965H462.283C462.965 97.3029 467.574 103.105 477.983 103.105C485.492 103.105 490.781 99.3501 490.781 93.5481C490.781 76.8246 444.365 87.9165 444.364 56.0051C444.364 42.1823 455.798 31.2604 474.911 31.2603Z" fill="white"/>
<path fill-rule="evenodd" clip-rule="evenodd" d="M95.0321 30.1664C123.019 30.1665 140.255 51.839 136.501 79.1432H73.3587C75.0652 93.4781 84.1106 100.817 95.8857 100.817C106.466 100.817 112.951 95.6968 114.487 89.3828H136.159C132.746 106.619 119.777 118.906 95.8857 118.906C68.9225 118.906 51.6862 100.475 51.6862 74.5357C51.6863 48.5965 69.9462 30.1664 95.0321 30.1664ZM95.0321 46.8905C84.281 46.8905 76.9427 52.5216 74.2122 63.2727H114.145C113.633 53.3749 106.124 46.8906 95.0321 46.8905Z" fill="white"/>
<path fill-rule="evenodd" clip-rule="evenodd" d="M327.507 30.1664C349.692 30.1666 365.221 42.2824 365.221 64.2961V117.541H343.718V106.619C339.964 113.445 330.066 118.906 319.145 118.906C300.885 118.906 289.451 107.983 289.451 93.6485C289.452 76.7542 300.885 67.7092 326.994 64.9788L343.718 63.2727V61.3957C343.718 52.3513 337.234 46.8907 327.507 46.8905C318.463 46.8905 311.807 51.4975 310.612 60.3712H289.621C292.011 42.6235 307.541 30.1664 327.507 30.1664ZM327.848 80.8504C315.732 82.2156 310.612 85.6286 310.612 92.796C310.612 99.11 315.732 102.694 323.411 102.694C335.698 102.693 343.718 92.4545 343.718 80.1677V78.8024L327.848 80.8504Z" fill="white"/>
<path d="M22.6031 31.2924C19.3194 34.9213 17.3193 39.734 17.3193 45.0135C17.3195 50.2924 19.3199 55.1037 22.6031 58.7325V118.635H0.9104V31.1204H22.6031V31.2924Z" fill="white"/>
<path d="M377.411 31.2913C380.555 33.2614 384.272 34.4022 388.256 34.4022C392.24 34.4021 395.957 33.262 399.101 31.2924V118.635H377.411V31.2913Z" fill="white"/>
<path d="M433.227 118.635H411.555V0H433.227V118.635Z" fill="white"/>
<path d="M248.896 30.1664C267.155 30.1665 280.125 42.2824 280.125 61.7365V117.541H258.452V66.344C258.452 55.7638 252.821 49.1083 243.435 49.1082C231.148 49.1082 223.98 60.5427 223.98 74.8775V117.541H202.308V66.344C202.308 55.7638 196.846 49.1083 187.461 49.1082C175.174 49.1082 168.006 60.5427 168.006 74.8775V117.541H146.334V31.5317H168.006V43.4773C172.955 35.9686 182.853 30.1664 194.799 30.1664C206.915 30.1664 216.984 36.139 220.226 44.6716C226.711 36.139 237.462 30.1664 248.896 30.1664Z" fill="white"/>
<path d="M37.776 31.1204C45.4486 31.1205 51.6689 37.3399 51.6692 45.0124C51.6692 52.6852 45.4488 58.9054 37.776 58.9055C30.1032 58.9055 23.8829 52.6853 23.8829 45.0124C23.8832 37.3398 30.1033 31.1204 37.776 31.1204Z" fill="white"/>
<path d="M388.256 0.0523462C395.929 0.0524618 402.15 6.2727 402.15 13.9455C402.149 21.6181 395.929 27.8385 388.256 27.8386C380.584 27.8386 374.363 21.6182 374.363 13.9455C374.363 6.27262 380.584 0.0523462 388.256 0.0523462Z" fill="white"/>
</svg>
